<svg id="Layer_1" data-name="Layer 1" xmlns="http://www.w3.org/2000/svg" viewBox="0 0 50 50" style="transform: scale(0.4)"><defs><style>.cls-1{fill:#fff;}.cls-2{fill:#1286dd;}.cls-3{fill:#14dbdb;}</style></defs><title>Artboard 1</title><path class="cls-1" d="M10,20.16A14.93,14.93,0,0,1,22,5.91,15.1,15.1,0,0,1,40,18.42a14.68,14.68,0,0,1-2.59,11c-1.71,2.43-3.57,4.76-5.36,7.14l-5.28,7c-1.07,1.42-2.4,1.42-3.47,0-3.44-4.6-6.89-9.19-10.32-13.8A15.43,15.43,0,0,1,10,20.16ZM25.1,42l.41-.52c3.27-4.36,6.55-8.71,9.8-13.08a12.59,12.59,0,0,0,2.41-10,12.85,12.85,0,0,0-25.45,1.37,11.73,11.73,0,0,0,2.26,8.19c3.36,4.6,6.82,9.12,10.24,13.67Z"/><path class="cls-2" d="M25.1,42l-.34-.41c-3.42-4.55-6.88-9.07-10.24-13.67a11.73,11.73,0,0,1-2.26-8.19,12.85,12.85,0,0,1,25.45-1.37,12.59,12.59,0,0,1-2.41,10c-3.25,4.37-6.53,8.72-9.8,13.08Zm0-29A7.13,7.13,0,1,0,25,27.33a7.13,7.13,0,1,0,.15-14.26Z"/><path class="cls-1" d="M25.15,10.58A9.72,9.72,0,0,1,35,20.22a9.79,9.79,0,0,1-10.06,9.59,9.74,9.74,0,0,1-9.75-9.68A9.77,9.77,0,0,1,25.15,10.58Zm0,16.13a6.67,6.67,0,0,0,6.82-6.5,6.84,6.84,0,0,0-13.66-.06A6.72,6.72,0,0,0,25.11,26.71Z"/><path class="cls-3" d="M25.11,25.83a5.81,5.81,0,0,1-5.91-5.67,5.91,5.91,0,0,1,11.81,0A5.77,5.77,0,0,1,25.11,25.83Z"/></svg>