<svg id="Layer_1" data-name="Layer 1" xmlns="http://www.w3.org/2000/svg" xmlns:xlink="http://www.w3.org/1999/xlink" viewBox="0 0 24 24">
  <defs>
    <style>
      .cls-1{fill:url(#linear-gradient);}
      .cls-2{fill:#fff;}
      .cls-3{fill:url(#linear-gradient-2);}
    </style>
    <linearGradient id="linear-gradient" x1="12" y1="3.01" x2="12" y2="20.59" gradientUnits="userSpaceOnUse">
      <stop offset="0" stop-color="#ff005c"/><stop offset="0.11" stop-color="#f6005e"/><stop offset="0.29" stop-color="#dc0063"/><stop offset="0.53" stop-color="#b3006b"/><stop offset="0.8" stop-color="#7a0076"/>
      <stop offset="1" stop-color="#4d007f"/></linearGradient><linearGradient id="linear-gradient-2" x1="12" y1="-0.09" x2="12" y2="25.12" gradientUnits="userSpaceOnUse">
      <stop offset="0" stop-color="#ff005c"/>
      <stop offset="0.17" stop-color="#e60061"/>
      <stop offset="0.54" stop-color="#a6006e"/>
      <stop offset="1" stop-color="#4d007f"/>
    </linearGradient>
  </defs>
  <title>Marker_01</title>
  <path class="cls-1" d="M12,23.69C10.81,22.84,2.49,16.63,2.49,10a9.51,9.51,0,1,1,19,0C21.51,16.63,13.19,22.84,12,23.69Z"/>
  <path class="cls-2" d="M12,.7A9.27,9.27,0,0,1,21.26,10c0,6.33-7.67,12.27-9.26,13.43C10.42,22.23,2.74,16.29,2.74,10A9.27,9.27,0,0,1,12,.7m0-.5A9.76,9.76,0,0,0,2.24,10C2.24,17.33,12,24,12,24s9.76-6.67,9.76-14A9.76,9.76,0,0,0,12,.2Z"/>
  <circle class="cls-3" cx="12" cy="10" r="4.5"/>
  <path class="cls-2" d="M12,6a4,4,0,1,1-4,4,4,4,0,0,1,4-4m0-1a5,5,0,1,0,5,5,5,5,0,0,0-5-5Z"/>
</svg>