<svg id="Layer_1" data-name="Layer 1" xmlns="http://www.w3.org/2000/svg" xmlns:xlink="http://www.w3.org/1999/xlink" viewBox="0 0 6 6"><defs><style>.cls-1{fill:url(#linear-gradient);}.cls-2{fill:#fff;}.cls-3{fill:url(#linear-gradient-2);}</style><linearGradient id="linear-gradient" x1="3.27" y1="0.71" x2="3.27" y2="4.68" gradientUnits="userSpaceOnUse"><stop offset="0" stop-color="#ff005c"/><stop offset="0.11" stop-color="#f6005e"/><stop offset="0.29" stop-color="#dc0063"/><stop offset="0.53" stop-color="#b3006b"/><stop offset="0.8" stop-color="#7a0076"/><stop offset="1" stop-color="#4d007f"/></linearGradient><linearGradient id="linear-gradient-2" x1="3.27" y1="-0.05" x2="3.27" y2="5.77" gradientUnits="userSpaceOnUse"><stop offset="0" stop-color="#ff005c"/><stop offset="0.17" stop-color="#e60061"/><stop offset="0.54" stop-color="#a6006e"/><stop offset="1" stop-color="#4d007f"/></linearGradient></defs><title>Marker_03</title><path class="cls-1" d="M3.27,5.39c-.38-.28-2.15-1.65-2.15-3.11a2.15,2.15,0,0,1,4.29,0C5.42,3.73,3.65,5.11,3.27,5.39Z"/><path class="cls-2" d="M3.27.25a2,2,0,0,1,2,2c0,1.33-1.54,2.6-2,3-.48-.36-2-1.63-2-3a2,2,0,0,1,2-2m0-.25A2.27,2.27,0,0,0,1,2.27C1,4,3.27,5.54,3.27,5.54S5.54,4,5.54,2.27A2.27,2.27,0,0,0,3.27,0Z"/><circle class="cls-3" cx="3.27" cy="2.28" r="1.04"/><path class="cls-2" d="M3.27,1.37a.91.91,0,1,1-.91.91.91.91,0,0,1,.91-.91m0-.25A1.16,1.16,0,1,0,4.43,2.28,1.16,1.16,0,0,0,3.27,1.12Z"/></svg>